# xmcd CD database file
#
# Track frame offsets:
#	150
#	21985
#	40400
#	62722
#	81707
#	99697
#	123800
#	144305
#	160710
#	183235
#
# Disc length: 2665 seconds
#
# Revision: 1
# Processed by: cddbd v1.5.1PL0 Copyright (c) Steve Scherf et al.
# Submitted via: CDex 1.50
#
DISCID=840a670a
DTITLE=刀根麻理子 - PURPLE ROSE
DYEAR=1985
DGENRE=New Age
TTITLE0=BROKEN EYES
TTITLE1=TALK TO ME
TTITLE2=WISHES
TTITLE3=少しだけ…
TTITLE4=カレンダー
TTITLE5=海が見たい
TTITLE6=IT'S A LONELY LOVE
TTITLE7=都会のゆううつ
TTITLE8=摩天楼物語
TTITLE9=YOU
EXTD=YEAR: 1985
EXTT0=
EXTT1=
EXTT2=
EXTT3=
EXTT4=
EXTT5=
EXTT6=
EXTT7=
EXTT8=
EXTT9=
PLAYORDER=
